<svg width="169" height="280" viewBox="0 0 169 280" fill="none" xmlns="http://www.w3.org/2000/svg">
<path fill-rule="evenodd" clip-rule="evenodd" d="M0.0299683 -10H168.39V181H0.0299683V-10Z" fill="#4AF6CD"/>
<path d="M60.3506 145.36C60.3506 142.2 60.8106 139.42 61.7306 137.02C62.6506 134.58 64.0306 132.4 65.8706 130.48L71.7506 135.46C69.4706 138.34 68.3306 141.36 68.3306 144.52C68.3306 146.16 68.6506 147.42 69.2906 148.3C69.8906 149.14 70.7506 149.56 71.8706 149.56C72.6706 149.56 73.3306 149.34 73.8506 148.9C74.3706 148.46 74.8706 147.72 75.3506 146.68C75.8306 145.64 76.4306 144 77.1506 141.76C78.5106 137.48 80.2306 134.36 82.3106 132.4C84.3506 130.4 87.1906 129.4 90.8306 129.4C93.4706 129.4 95.8106 130.08 97.8506 131.44C99.8506 132.8 101.411 134.78 102.531 137.38C103.651 139.94 104.211 142.96 104.211 146.44C104.211 153.08 102.191 158.5 98.1506 162.7L92.0906 157.24C94.8106 153.92 96.1706 150.46 96.1706 146.86C96.1706 144.98 95.7706 143.52 94.9706 142.48C94.1306 141.44 93.0306 140.92 91.6706 140.92C90.7106 140.92 89.9306 141.12 89.3306 141.52C88.6906 141.92 88.1306 142.64 87.6506 143.68C87.1306 144.68 86.5706 146.16 85.9706 148.12C84.4906 152.84 82.7106 156.16 80.6306 158.08C78.5506 160 75.9306 160.96 72.7706 160.96C70.2906 160.96 68.1106 160.3 66.2306 158.98C64.3506 157.62 62.9106 155.76 61.9106 153.4C60.8706 151 60.3506 148.32 60.3506 145.36ZM89.1506 91.9553C92.0306 91.9553 94.6106 92.5953 96.8906 93.8753C99.1706 95.1153 100.971 96.9953 102.291 99.5153C103.571 102.035 104.211 105.115 104.211 108.755C104.211 114.275 102.871 118.455 100.191 121.295C97.4706 124.135 93.7906 125.555 89.1506 125.555H61.4306V114.455H88.7906C91.3106 114.455 93.1706 114.015 94.3706 113.135C95.5306 112.215 96.1106 110.755 96.1106 108.755C96.1106 106.755 95.5106 105.315 94.3106 104.435C93.1106 103.555 91.2706 103.115 88.7906 103.115H61.4306V91.9553H89.1506ZM87.7706 71.9477V75.0077H103.131V86.1077H61.4306V71.6477C61.4306 65.7677 62.4906 61.3877 64.6106 58.5077C66.7306 55.5877 69.9906 54.1277 74.3906 54.1277C77.0306 54.1277 79.2306 54.7477 80.9906 55.9877C82.7506 57.1877 84.3306 59.1277 85.7306 61.8077L103.131 51.4277V63.7877L87.7706 71.9477ZM80.2106 75.0077V71.2877C80.2106 67.4477 78.2706 65.5277 74.3906 65.5277C72.5906 65.5277 71.2706 66.0677 70.4306 67.1477C69.5906 68.1877 69.1706 69.7677 69.1706 71.8877V75.0077H80.2106ZM103.131 48.9006H61.4306V23.2806L69.2906 24.4206V37.8006H79.3106V26.0406H87.1706V37.8006H103.131V48.9006Z" fill="white"/>
<path d="M60.3506 257.92C60.3506 252.36 62.1106 247.58 65.6306 243.58L71.3306 249.04C70.2506 250.56 69.4706 251.94 68.9906 253.18C68.4706 254.38 68.2106 255.76 68.2106 257.32C68.2106 260.32 69.3706 262.68 71.6906 264.4C74.0106 266.08 77.5506 266.92 82.3106 266.92C85.7906 266.92 88.5506 266.64 90.5906 266.08C92.5906 265.52 94.0306 264.68 94.9106 263.56C95.7906 262.4 96.2306 260.92 96.2306 259.12C96.2306 257.32 95.8506 255.68 95.0906 254.2H86.5106V258.94L78.8906 260.02V243.46H99.6506C101.091 245.62 102.211 248.06 103.011 250.78C103.811 253.5 104.211 256.18 104.211 258.82C104.211 271.86 96.8906 278.38 82.2506 278.38C77.6906 278.38 73.7706 277.5 70.4906 275.74C67.1706 273.94 64.6506 271.5 62.9306 268.42C61.2106 265.34 60.3506 261.84 60.3506 257.92ZM60.3506 220.335C60.3506 214.295 62.2706 209.595 66.1106 206.235C69.9506 202.875 75.3306 201.195 82.2506 201.195C86.7706 201.195 90.6906 201.955 94.0106 203.475C97.2906 204.955 99.8106 207.135 101.571 210.015C103.331 212.895 104.211 216.335 104.211 220.335C104.211 226.375 102.291 231.075 98.4506 234.435C94.6106 237.755 89.2106 239.415 82.2506 239.415C77.7306 239.415 73.8306 238.675 70.5506 237.195C67.2706 235.675 64.7506 233.495 62.9906 230.655C61.2306 227.775 60.3506 224.335 60.3506 220.335ZM68.3306 220.335C68.3306 222.935 69.4106 224.855 71.5706 226.095C73.7306 227.295 77.2906 227.895 82.2506 227.895C87.2106 227.895 90.7906 227.275 92.9906 226.035C95.1506 224.795 96.2306 222.895 96.2306 220.335C96.2306 217.695 95.1506 215.775 92.9906 214.575C90.8306 213.375 87.2506 212.775 82.2506 212.775C77.2906 212.775 73.7306 213.375 71.5706 214.575C69.4106 215.775 68.3306 217.695 68.3306 220.335Z" fill="white"/>
<rect x="83.2077" y="191" width="20" height="1.00214" transform="rotate(-90 83.2077 191)" fill="white"/>
</svg>
